<?xml version="1.0" encoding="UTF-8" standalone="no"?>
<!DOCTYPE svg PUBLIC "-//W3C//DTD SVG 1.1//EN"
 "http://www.w3.org/Graphics/SVG/1.1/DTD/svg11.dtd">
<!-- Generated by graphviz version 14.1.1 (20251213.1925)
 -->
<!-- Pages: 1 -->
<svg width="2131pt" height="1124pt"
 viewBox="0.00 0.00 2131.00 1124.00" xmlns="http://www.w3.org/2000/svg" xmlns:xlink="http://www.w3.org/1999/xlink">
<g id="graph0" class="graph" transform="scale(1 1) rotate(0) translate(4 1120)">
<polygon fill="white" stroke="none" points="-4,4 -4,-1120 2127.01,-1120 2127.01,4 -4,4"/>
<!-- [root] aws_dynamodb_resource_policy.terraform&#45;backend&#45;lock&#45;policy (expand) -->
<g id="node1" class="node">
<title>[root] aws_dynamodb_resource_policy.terraform&#45;backend&#45;lock&#45;policy (expand)</title>
<polygon fill="none" stroke="black" points="2036.12,-756 1671.38,-756 1671.38,-720 2036.12,-720 2036.12,-756"/>
<text xml:space="preserve" text-anchor="middle" x="1853.75" y="-732.95" font-family="Times,serif" font-size="14.00">aws_dynamodb_resource_policy.terraform&#45;backend&#45;lock&#45;policy</text>
</g>
<!-- [root] data.aws_iam_policy_document.tf&#45;state&#45;lock&#45;policy (expand) -->
<g id="node15" class="node">
<title>[root] data.aws_iam_policy_document.tf&#45;state&#45;lock&#45;policy (expand)</title>
<polygon fill="none" stroke="black" points="2059.5,-576 1760,-576 1760,-540 2059.5,-540 2059.5,-576"/>
<text xml:space="preserve" text-anchor="middle" x="1909.75" y="-552.95" font-family="Times,serif" font-size="14.00">data.aws_iam_policy_document.tf&#45;state&#45;lock&#45;policy</text>
</g>
<!-- [root] aws_dynamodb_resource_policy.terraform&#45;backend&#45;lock&#45;policy (expand)&#45;&gt;[root] data.aws_iam_policy_document.tf&#45;state&#45;lock&#45;policy (expand) -->
<g id="edge1" class="edge">
<title>[root] aws_dynamodb_resource_policy.terraform&#45;backend&#45;lock&#45;policy (expand)&#45;&gt;[root] data.aws_iam_policy_document.tf&#45;state&#45;lock&#45;policy (expand)</title>
<path fill="none" stroke="black" d="M1859.22,-719.61C1868.92,-688.77 1889.22,-624.26 1900.92,-587.06"/>
<polygon fill="black" stroke="black" points="1904.14,-588.5 1903.8,-577.91 1897.46,-586.39 1904.14,-588.5"/>
</g>
<!-- [root] aws_dynamodb_table.terraform&#45;backend&#45;lock (expand) -->
<g id="node2" class="node">
<title>[root] aws_dynamodb_table.terraform&#45;backend&#45;lock (expand)</title>
<polygon fill="none" stroke="black" points="1975.38,-216 1708.12,-216 1708.12,-180 1975.38,-180 1975.38,-216"/>
<text xml:space="preserve" text-anchor="middle" x="1841.75" y="-192.95" font-family="Times,serif" font-size="14.00">aws_dynamodb_table.terraform&#45;backend&#45;lock</text>
</g>
<!-- [root] provider[&quot;registry.terraform.io/hashicorp/aws&quot;] -->
<g id="node16" class="node">
<title>[root] provider[&quot;registry.terraform.io/hashicorp/aws&quot;]</title>
<polygon fill="none" stroke="black" points="1468.75,-36 1204.32,-18 1468.75,0 1733.18,-18 1468.75,-36"/>
<text xml:space="preserve" text-anchor="middle" x="1468.75" y="-12.95" font-family="Times,serif" font-size="14.00">provider[&quot;registry.terraform.io/hashicorp/aws&quot;]</text>
</g>
<!-- [root] aws_dynamodb_table.terraform&#45;backend&#45;lock (expand)&#45;&gt;[root] provider[&quot;registry.terraform.io/hashicorp/aws&quot;] -->
<g id="edge2" class="edge">
<title>[root] aws_dynamodb_table.terraform&#45;backend&#45;lock (expand)&#45;&gt;[root] provider[&quot;registry.terraform.io/hashicorp/aws&quot;]</title>
<path fill="none" stroke="black" d="M1805.31,-179.61C1735.85,-146.47 1584.9,-74.43 1511.1,-39.21"/>
<polygon fill="black" stroke="black" points="1512.68,-36.09 1502.15,-34.94 1509.67,-42.4 1512.68,-36.09"/>
</g>
<!-- [root] aws_iam_policy.replication (expand) -->
<g id="node3" class="node">
<title>[root] aws_iam_policy.replication (expand)</title>
<polygon fill="none" stroke="black" points="781.75,-576 615.75,-576 615.75,-540 781.75,-540 781.75,-576"/>
<text xml:space="preserve" text-anchor="middle" x="698.75" y="-552.95" font-family="Times,serif" font-size="14.00">aws_iam_policy.replication</text>
</g>
<!-- [root] data.aws_iam_policy_document.replication (expand) -->
<g id="node13" class="node">
<title>[root] data.aws_iam_policy_document.replication (expand)</title>
<polygon fill="none" stroke="black" points="829.62,-396 575.88,-396 575.88,-360 829.62,-360 829.62,-396"/>
<text xml:space="preserve" text-anchor="middle" x="702.75" y="-372.95" font-family="Times,serif" font-size="14.00">data.aws_iam_policy_document.replication</text>
</g>
<!-- [root] aws_iam_policy.replication (expand)&#45;&gt;[root] data.aws_iam_policy_document.replication (expand) -->
<g id="edge3" class="edge">
<title>[root] aws_iam_policy.replication (expand)&#45;&gt;[root] data.aws_iam_policy_document.replication (expand)</title>
<path fill="none" stroke="black" d="M699.14,-539.61C699.83,-508.9 701.27,-444.81 702.11,-407.54"/>
<polygon fill="black" stroke="black" points="705.6,-408.05 702.32,-397.98 698.6,-407.89 705.6,-408.05"/>
</g>
<!-- [root] aws_iam_role.replication (expand) -->
<g id="node4" class="node">
<title>[root] aws_iam_role.replication (expand)</title>
<polygon fill="none" stroke="black" points="1055.75,-396 901.75,-396 901.75,-360 1055.75,-360 1055.75,-396"/>
<text xml:space="preserve" text-anchor="middle" x="978.75" y="-372.95" font-family="Times,serif" font-size="14.00">aws_iam_role.replication</text>
</g>
<!-- [root] data.aws_iam_policy_document.assume_role (expand) -->
<g id="node12" class="node">
<title>[root] data.aws_iam_policy_document.assume_role (expand)</title>
<polygon fill="none" stroke="black" points="1261.88,-216 997.62,-216 997.62,-180 1261.88,-180 1261.88,-216"/>
<text xml:space="preserve" text-anchor="middle" x="1129.75" y="-192.95" font-family="Times,serif" font-size="14.00">data.aws_iam_policy_document.assume_role</text>
</g>
<!-- [root] aws_iam_role.replication (expand)&#45;&gt;[root] data.aws_iam_policy_document.assume_role (expand) -->
<g id="edge4" class="edge">
<title>[root] aws_iam_role.replication (expand)&#45;&gt;[root] data.aws_iam_policy_document.assume_role (expand)</title>
<path fill="none" stroke="black" d="M993.5,-359.61C1020.12,-328.24 1076.29,-262.02 1107.56,-225.16"/>
<polygon fill="black" stroke="black" points="1110.16,-227.51 1113.96,-217.62 1104.82,-222.98 1110.16,-227.51"/>
</g>
<!-- [root] aws_iam_role_policy_attachment.replication (expand) -->
<g id="node5" class="node">
<title>[root] aws_iam_role_policy_attachment.replication (expand)</title>
<polygon fill="none" stroke="black" points="1021.38,-756 760.12,-756 760.12,-720 1021.38,-720 1021.38,-756"/>
<text xml:space="preserve" text-anchor="middle" x="890.75" y="-732.95" font-family="Times,serif" font-size="14.00">aws_iam_role_policy_attachment.replication</text>
</g>
<!-- [root] aws_iam_role_policy_attachment.replication (expand)&#45;&gt;[root] aws_iam_policy.replication (expand) -->
<g id="edge5" class="edge">
<title>[root] aws_iam_role_policy_attachment.replication (expand)&#45;&gt;[root] aws_iam_policy.replication (expand)</title>
<path fill="none" stroke="black" d="M871.99,-719.61C837.87,-687.97 765.51,-620.9 725.97,-584.23"/>
<polygon fill="black" stroke="black" points="728.41,-581.72 718.7,-577.49 723.65,-586.86 728.41,-581.72"/>
</g>
<!-- [root] aws_iam_role_policy_attachment.replication (expand)&#45;&gt;[root] aws_iam_role.replication (expand) -->
<g id="edge6" class="edge">
<title>[root] aws_iam_role_policy_attachment.replication (expand)&#45;&gt;[root] aws_iam_role.replication (expand)</title>
<path fill="none" stroke="black" d="M894.99,-719.73C909.08,-662.43 954.37,-478.18 971.81,-407.22"/>
<polygon fill="black" stroke="black" points="975.2,-408.11 974.19,-397.56 968.4,-406.44 975.2,-408.11"/>
</g>
<!-- [root] aws_s3_bucket.backend_bucket (expand) -->
<g id="node6" class="node">
<title>[root] aws_s3_bucket.backend_bucket (expand)</title>
<polygon fill="none" stroke="black" points="1563.75,-216 1373.75,-216 1373.75,-180 1563.75,-180 1563.75,-216"/>
<text xml:space="preserve" text-anchor="middle" x="1468.75" y="-192.95" font-family="Times,serif" font-size="14.00">aws_s3_bucket.backend_bucket</text>
</g>
<!-- [root] aws_s3_bucket.backend_bucket (expand)&#45;&gt;[root] provider[&quot;registry.terraform.io/hashicorp/aws&quot;] -->
<g id="edge7" class="edge">
<title>[root] aws_s3_bucket.backend_bucket (expand)&#45;&gt;[root] provider[&quot;registry.terraform.io/hashicorp/aws&quot;]</title>
<path fill="none" stroke="black" d="M1468.75,-179.61C1468.75,-148.9 1468.75,-84.81 1468.75,-47.54"/>
<polygon fill="black" stroke="black" points="1472.25,-47.98 1468.75,-37.98 1465.25,-47.98 1472.25,-47.98"/>
</g>
<!-- [root] aws_s3_bucket.backend_replication_target_bucket (expand) -->
<g id="node7" class="node">
<title>[root] aws_s3_bucket.backend_replication_target_bucket (expand)</title>
<polygon fill="none" stroke="black" points="848.75,-216 556.75,-216 556.75,-180 848.75,-180 848.75,-216"/>
<text xml:space="preserve" text-anchor="middle" x="702.75" y="-192.95" font-family="Times,serif" font-size="14.00">aws_s3_bucket.backend_replication_target_bucket</text>
</g>
<!-- [root] provider[&quot;registry.terraform.io/hashicorp/aws&quot;].target -->
<g id="node17" class="node">
<title>[root] provider[&quot;registry.terraform.io/hashicorp/aws&quot;].target</title>
<polygon fill="none" stroke="black" points="702.75,-36 405.02,-18 702.75,0 1000.48,-18 702.75,-36"/>
<text xml:space="preserve" text-anchor="middle" x="702.75" y="-12.95" font-family="Times,serif" font-size="14.00">provider[&quot;registry.terraform.io/hashicorp/aws&quot;].target</text>
</g>
<!-- [root] aws_s3_bucket.backend_replication_target_bucket (expand)&#45;&gt;[root] provider[&quot;registry.terraform.io/hashicorp/aws&quot;].target -->
<g id="edge8" class="edge">
<title>[root] aws_s3_bucket.backend_replication_target_bucket (expand)&#45;&gt;[root] provider[&quot;registry.terraform.io/hashicorp/aws&quot;].target</title>
<path fill="none" stroke="black" d="M702.75,-179.61C702.75,-148.9 702.75,-84.81 702.75,-47.54"/>
<polygon fill="black" stroke="black" points="706.25,-47.98 702.75,-37.98 699.25,-47.98 706.25,-47.98"/>
</g>
<!-- [root] aws_s3_bucket_policy.backend&#45;bucket&#45;policy (expand) -->
<g id="node8" class="node">
<title>[root] aws_s3_bucket_policy.backend&#45;bucket&#45;policy (expand)</title>
<polygon fill="none" stroke="black" points="1551.62,-756 1285.88,-756 1285.88,-720 1551.62,-720 1551.62,-756"/>
<text xml:space="preserve" text-anchor="middle" x="1418.75" y="-732.95" font-family="Times,serif" font-size="14.00">aws_s3_bucket_policy.backend&#45;bucket&#45;policy</text>
</g>
<!-- [root] data.aws_iam_policy_document.tf&#45;state&#45;bucket&#45;policy (expand) -->
<g id="node14" class="node">
<title>[root] data.aws_iam_policy_document.tf&#45;state&#45;bucket&#45;policy (expand)</title>
<polygon fill="none" stroke="black" points="1687.88,-576 1375.62,-576 1375.62,-540 1687.88,-540 1687.88,-576"/>
<text xml:space="preserve" text-anchor="middle" x="1531.75" y="-552.95" font-family="Times,serif" font-size="14.00">data.aws_iam_policy_document.tf&#45;state&#45;bucket&#45;policy</text>
</g>
<!-- [root] aws_s3_bucket_policy.backend&#45;bucket&#45;policy (expand)&#45;&gt;[root] data.aws_iam_policy_document.tf&#45;state&#45;bucket&#45;policy (expand) -->
<g id="edge9" class="edge">
<title>[root] aws_s3_bucket_policy.backend&#45;bucket&#45;policy (expand)&#45;&gt;[root] data.aws_iam_policy_document.tf&#45;state&#45;bucket&#45;policy (expand)</title>
<path fill="none" stroke="black" d="M1429.79,-719.61C1449.54,-688.5 1491.03,-623.14 1514.54,-586.11"/>
<polygon fill="black" stroke="black" points="1517.45,-588.06 1519.85,-577.74 1511.54,-584.31 1517.45,-588.06"/>
</g>
<!-- [root] aws_s3_bucket_replication_configuration.replication (expand) -->
<g id="node9" class="node">
<title>[root] aws_s3_bucket_replication_configuration.replication (expand)</title>
<polygon fill="none" stroke="black" points="1303.75,-576 999.75,-576 999.75,-540 1303.75,-540 1303.75,-576"/>
<text xml:space="preserve" text-anchor="middle" x="1151.75" y="-552.95" font-family="Times,serif" font-size="14.00">aws_s3_bucket_replication_configuration.replication</text>
</g>
<!-- [root] aws_s3_bucket_replication_configuration.replication (expand)&#45;&gt;[root] aws_iam_role.replication (expand) -->
<g id="edge10" class="edge">
<title>[root] aws_s3_bucket_replication_configuration.replication (expand)&#45;&gt;[root] aws_iam_role.replication (expand)</title>
<path fill="none" stroke="black" d="M1134.85,-539.61C1104.23,-508.1 1039.46,-441.46 1003.72,-404.69"/>
<polygon fill="black" stroke="black" points="1006.26,-402.28 996.78,-397.55 1001.24,-407.16 1006.26,-402.28"/>
</g>
<!-- [root] aws_s3_bucket_replication_configuration.replication (expand)&#45;&gt;[root] aws_s3_bucket.backend_replication_target_bucket (expand) -->
<g id="edge11" class="edge">
<title>[root] aws_s3_bucket_replication_configuration.replication (expand)&#45;&gt;[root] aws_s3_bucket.backend_replication_target_bucket (expand)</title>
<path fill="none" stroke="black" d="M1151.25,-539.6C1149.25,-502.05 1139.45,-412.55 1091.75,-360 1020.26,-281.24 904.35,-240 817.62,-219.07"/>
<polygon fill="black" stroke="black" points="818.66,-215.72 808.13,-216.84 817.06,-222.53 818.66,-215.72"/>
</g>
<!-- [root] aws_s3_bucket_versioning.backend_bucket_versioning (expand) -->
<g id="node10" class="node">
<title>[root] aws_s3_bucket_versioning.backend_bucket_versioning (expand)</title>
<polygon fill="none" stroke="black" points="1591.5,-396 1274,-396 1274,-360 1591.5,-360 1591.5,-396"/>
<text xml:space="preserve" text-anchor="middle" x="1432.75" y="-372.95" font-family="Times,serif" font-size="14.00">aws_s3_bucket_versioning.backend_bucket_versioning</text>
</g>
<!-- [root] aws_s3_bucket_replication_configuration.replication (expand)&#45;&gt;[root] aws_s3_bucket_versioning.backend_bucket_versioning (expand) -->
<g id="edge12" class="edge">
<title>[root] aws_s3_bucket_replication_configuration.replication (expand)&#45;&gt;[root] aws_s3_bucket_versioning.backend_bucket_versioning (expand)</title>
<path fill="none" stroke="black" d="M1179.21,-539.61C1229.99,-507.44 1338.61,-438.63 1395.8,-402.41"/>
<polygon fill="black" stroke="black" points="1397.33,-405.58 1403.9,-397.27 1393.58,-399.67 1397.33,-405.58"/>
</g>
<!-- [root] aws_s3_bucket_versioning.backend_bucket_versioning (expand)&#45;&gt;[root] aws_s3_bucket.backend_bucket (expand) -->
<g id="edge13" class="edge">
<title>[root] aws_s3_bucket_versioning.backend_bucket_versioning (expand)&#45;&gt;[root] aws_s3_bucket.backend_bucket (expand)</title>
<path fill="none" stroke="black" d="M1436.27,-359.61C1442.48,-328.9 1455.44,-264.81 1462.98,-227.54"/>
<polygon fill="black" stroke="black" points="1466.37,-228.44 1464.92,-217.95 1459.51,-227.05 1466.37,-228.44"/>
</g>
<!-- [root] aws_s3_bucket_versioning.backend_replication_target_bucket_versioning (expand) -->
<g id="node11" class="node">
<title>[root] aws_s3_bucket_versioning.backend_replication_target_bucket_versioning (expand)</title>
<polygon fill="none" stroke="black" points="680.5,-756 261,-756 261,-720 680.5,-720 680.5,-756"/>
<text xml:space="preserve" text-anchor="middle" x="470.75" y="-732.95" font-family="Times,serif" font-size="14.00">aws_s3_bucket_versioning.backend_replication_target_bucket_versioning</text>
</g>
<!-- [root] aws_s3_bucket_versioning.backend_replication_target_bucket_versioning (expand)&#45;&gt;[root] aws_s3_bucket.backend_replication_target_bucket (expand) -->
<g id="edge14" class="edge">
<title>[root] aws_s3_bucket_versioning.backend_replication_target_bucket_versioning (expand)&#45;&gt;[root] aws_s3_bucket.backend_replication_target_bucket (expand)</title>
<path fill="none" stroke="black" d="M466.24,-719.62C458.65,-686.94 446.05,-614.62 466.75,-559"/>
</g>
<!-- [root] data.aws_iam_policy_document.assume_role (expand)&#45;&gt;[root] provider[&quot;registry.terraform.io/hashicorp/aws&quot;] -->
<g id="edge15" class="edge">
<title>[root] data.aws_iam_policy_document.assume_role (expand)&#45;&gt;[root] provider[&quot;registry.terraform.io/hashicorp/aws&quot;]</title>
<path fill="none" stroke="black" d="M1162.87,-179.61C1225.78,-146.57 1362.28,-74.9 1429.6,-39.56"/>
<polygon fill="black" stroke="black" points="1430.83,-42.86 1438.06,-35.12 1427.58,-36.67 1430.83,-42.86"/>
</g>
<!-- [root] data.aws_iam_policy_document.replication (expand)&#45;&gt;[root] aws_s3_bucket.backend_bucket (expand) -->
<g id="edge16" class="edge">
<title>[root] data.aws_iam_policy_document.replication (expand)&#45;&gt;[root] aws_s3_bucket.backend_bucket (expand)</title>
<path fill="none" stroke="black" d="M777.94,-359.53C921,-326.28 1231.51,-254.13 1382.65,-219.01"/>
<polygon fill="black" stroke="black" points="1383.27,-222.46 1392.21,-216.79 1381.68,-215.64 1383.27,-222.46"/>
</g>
<!-- [root] data.aws_iam_policy_document.replication (expand)&#45;&gt;[root] aws_s3_bucket.backend_replication_target_bucket (expand) -->
<g id="edge17" class="edge">
<title>[root] data.aws_iam_policy_document.replication (expand)&#45;&gt;[root] aws_s3_bucket.backend_replication_target_bucket (expand)</title>
<path fill="none" stroke="black" d="M702.75,-359.61C702.75,-328.9 702.75,-264.81 702.75,-227.54"/>
<polygon fill="black" stroke="black" points="706.25,-227.98 702.75,-217.98 699.25,-227.98 706.25,-227.98"/>
</g>
<!-- [root] data.aws_iam_policy_document.tf&#45;state&#45;bucket&#45;policy (expand)&#45;&gt;[root] aws_s3_bucket.backend_bucket (expand) -->
<g id="edge18" class="edge">
<title>[root] data.aws_iam_policy_document.tf&#45;state&#45;bucket&#45;policy (expand)&#45;&gt;[root] aws_s3_bucket.backend_bucket (expand)</title>
<path fill="none" stroke="black" d="M1551.12,-539.68C1586.56,-505.8 1655.71,-428.1 1627.75,-360 1603.2,-300.2 1544.51,-250.76 1505.72,-223.06"/>
<polygon fill="black" stroke="black" points="1507.76,-220.22 1497.56,-217.36 1503.76,-225.96 1507.76,-220.22"/>
</g>
<!-- [root] data.aws_iam_policy_document.tf&#45;state&#45;lock&#45;policy (expand)&#45;&gt;[root] aws_dynamodb_table.terraform&#45;backend&#45;lock (expand) -->
<g id="edge19" class="edge">
<title>[root] data.aws_iam_policy_document.tf&#45;state&#45;lock&#45;policy (expand)&#45;&gt;[root] aws_dynamodb_table.terraform&#45;backend&#45;lock (expand)</title>
<path fill="none" stroke="black" d="M1906.47,-539.73C1895.59,-482.43 1860.59,-298.18 1847.11,-227.22"/>
<polygon fill="black" stroke="black" points="1850.58,-226.75 1845.28,-217.58 1843.71,-228.06 1850.58,-226.75"/>
</g>
<!-- [root] output.backend_bucket_output (expand) -->
<g id="node18" class="node">
<title>[root] output.backend_bucket_output (expand)</title>
<polygon fill="none" stroke="black" points="1985.5,-936 1716,-936 1716,-900 1985.5,-900 1985.5,-936"/>
<text xml:space="preserve" text-anchor="middle" x="1850.75" y="-912.95" font-family="Times,serif" font-size="14.00">[root] output.backend_bucket_output (expand)</text>
</g>
<!-- [root] output.backend_bucket_output (expand)&#45;&gt;[root] aws_s3_bucket.backend_bucket (expand) -->
<g id="edge20" class="edge">
<title>[root] output.backend_bucket_output (expand)&#45;&gt;[root] aws_s3_bucket.backend_bucket (expand)</title>
<path fill="none" stroke="black" d="M1891.69,-899.67C1943.09,-875.57 2029.63,-826.77 2071.75,-756 2121.15,-673 2145.11,-623.03 2095.75,-540 1980.27,-345.75 1711.12,-255.21 1565.85,-219.19"/>
<polygon fill="black" stroke="black" points="1566.77,-215.81 1556.23,-216.84 1565.11,-222.61 1566.77,-215.81"/>
</g>
<!-- [root] output.backend_replication_target_bucket_output (expand) -->
<g id="node19" class="node">
<title>[root] output.backend_replication_target_bucket_output (expand)</title>
<polygon fill="none" stroke="black" points="371.5,-936 0,-936 0,-900 371.5,-900 371.5,-936"/>
<text xml:space="preserve" text-anchor="middle" x="185.75" y="-912.95" font-family="Times,serif" font-size="14.00">[root] output.backend_replication_target_bucket_output (expand)</text>
</g>
<!-- [root] output.backend_replication_target_bucket_output (expand)&#45;&gt;[root] aws_s3_bucket.backend_replication_target_bucket (expand) -->
<g id="edge21" class="edge">
<title>[root] output.backend_replication_target_bucket_output (expand)&#45;&gt;[root] aws_s3_bucket.backend_replication_target_bucket (expand)</title>
<path fill="none" stroke="black" d="M184.92,-899.53C184.05,-862.97 186.56,-777.09 224.75,-720 296.58,-612.63 421.7,-680.07 466.75,-559"/>
<path fill="none" stroke="black" d="M466.75,-557C494.38,-467.81 489.11,-438.45 539.75,-360 575.94,-303.93 634.71,-252.2 670.92,-223.21"/>
<polygon fill="black" stroke="black" points="672.74,-226.22 678.42,-217.27 668.4,-220.73 672.74,-226.22"/>
</g>
<!-- [root] provider[&quot;registry.terraform.io/hashicorp/aws&quot;] (close) -->
<g id="node20" class="node">
<title>[root] provider[&quot;registry.terraform.io/hashicorp/aws&quot;] (close)</title>
<polygon fill="none" stroke="black" points="1326.25,-936 977.25,-936 977.25,-900 1326.25,-900 1326.25,-936"/>
<text xml:space="preserve" text-anchor="middle" x="1151.75" y="-912.95" font-family="Times,serif" font-size="14.00">[root] provider[&quot;registry.terraform.io/hashicorp/aws&quot;] (close)</text>
</g>
<!-- [root] provider[&quot;registry.terraform.io/hashicorp/aws&quot;] (close)&#45;&gt;[root] aws_dynamodb_resource_policy.terraform&#45;backend&#45;lock&#45;policy (expand) -->
<g id="edge22" class="edge">
<title>[root] provider[&quot;registry.terraform.io/hashicorp/aws&quot;] (close)&#45;&gt;[root] aws_dynamodb_resource_policy.terraform&#45;backend&#45;lock&#45;policy (expand)</title>
<path fill="none" stroke="black" d="M1220.66,-899.53C1351.5,-866.35 1635.2,-794.42 1774.01,-759.22"/>
<polygon fill="black" stroke="black" points="1774.66,-762.67 1783.49,-756.81 1772.94,-755.88 1774.66,-762.67"/>
</g>
<!-- [root] provider[&quot;registry.terraform.io/hashicorp/aws&quot;] (close)&#45;&gt;[root] aws_iam_role_policy_attachment.replication (expand) -->
<g id="edge23" class="edge">
<title>[root] provider[&quot;registry.terraform.io/hashicorp/aws&quot;] (close)&#45;&gt;[root] aws_iam_role_policy_attachment.replication (expand)</title>
<path fill="none" stroke="black" d="M1126.25,-899.61C1079.28,-867.57 979.02,-799.2 925.73,-762.86"/>
<polygon fill="black" stroke="black" points="927.84,-760.06 917.6,-757.31 923.89,-765.84 927.84,-760.06"/>
</g>
<!-- [root] provider[&quot;registry.terraform.io/hashicorp/aws&quot;] (close)&#45;&gt;[root] aws_s3_bucket_policy.backend&#45;bucket&#45;policy (expand) -->
<g id="edge24" class="edge">
<title>[root] provider[&quot;registry.terraform.io/hashicorp/aws&quot;] (close)&#45;&gt;[root] aws_s3_bucket_policy.backend&#45;bucket&#45;policy (expand)</title>
<path fill="none" stroke="black" d="M1177.84,-899.61C1225.99,-867.51 1328.88,-798.92 1383.3,-762.63"/>
<polygon fill="black" stroke="black" points="1384.92,-765.76 1391.3,-757.3 1381.04,-759.94 1384.92,-765.76"/>
</g>
<!-- [root] provider[&quot;registry.terraform.io/hashicorp/aws&quot;] (close)&#45;&gt;[root] aws_s3_bucket_replication_configuration.replication (expand) -->
<g id="edge25" class="edge">
<title>[root] provider[&quot;registry.terraform.io/hashicorp/aws&quot;] (close)&#45;&gt;[root] aws_s3_bucket_replication_configuration.replication (expand)</title>
<path fill="none" stroke="black" d="M1151.75,-899.73C1151.75,-842.43 1151.75,-658.18 1151.75,-587.22"/>
<polygon fill="black" stroke="black" points="1155.25,-587.61 1151.75,-577.61 1148.25,-587.61 1155.25,-587.61"/>
</g>
<!-- [root] provider[&quot;registry.terraform.io/hashicorp/aws&quot;].target (close) -->
<g id="node21" class="node">
<title>[root] provider[&quot;registry.terraform.io/hashicorp/aws&quot;].target (close)</title>
<polygon fill="none" stroke="black" points="879.5,-936 496,-936 496,-900 879.5,-900 879.5,-936"/>
<text xml:space="preserve" text-anchor="middle" x="687.75" y="-912.95" font-family="Times,serif" font-size="14.00">[root] provider[&quot;registry.terraform.io/hashicorp/aws&quot;].target (close)</text>
</g>
<!-- [root] provider[&quot;registry.terraform.io/hashicorp/aws&quot;].target (close)&#45;&gt;[root] aws_s3_bucket_versioning.backend_replication_target_bucket_versioning (expand) -->
<g id="edge26" class="edge">
<title>[root] provider[&quot;registry.terraform.io/hashicorp/aws&quot;].target (close)&#45;&gt;[root] aws_s3_bucket_versioning.backend_replication_target_bucket_versioning (expand)</title>
<path fill="none" stroke="black" d="M666.55,-899.61C627.74,-867.77 545.18,-800.05 500.67,-763.54"/>
<polygon fill="black" stroke="black" points="503.16,-761.06 493.21,-757.42 498.72,-766.47 503.16,-761.06"/>
</g>
<!-- [root] root -->
<g id="node22" class="node">
<title>[root] root</title>
<polygon fill="none" stroke="black" points="942.88,-1116 870.62,-1116 870.62,-1080 942.88,-1080 942.88,-1116"/>
<text xml:space="preserve" text-anchor="middle" x="906.75" y="-1092.95" font-family="Times,serif" font-size="14.00">[root] root</text>
</g>
<!-- [root] root&#45;&gt;[root] output.backend_bucket_output (expand) -->
<g id="edge27" class="edge">
<title>[root] root&#45;&gt;[root] output.backend_bucket_output (expand)</title>
<path fill="none" stroke="black" d="M943.18,-1090.13C1076.1,-1065.07 1538.11,-977.95 1746.9,-938.58"/>
<polygon fill="black" stroke="black" points="1747.49,-942.03 1756.67,-936.74 1746.2,-935.15 1747.49,-942.03"/>
</g>
<!-- [root] root&#45;&gt;[root] output.backend_replication_target_bucket_output (expand) -->
<g id="edge28" class="edge">
<title>[root] root&#45;&gt;[root] output.backend_replication_target_bucket_output (expand)</title>
<path fill="none" stroke="black" d="M870.5,-1088.05C759.72,-1060.7 423.7,-977.74 267.36,-939.15"/>
<polygon fill="black" stroke="black" points="268.44,-935.81 257.89,-936.81 266.76,-942.61 268.44,-935.81"/>
</g>
<!-- [root] root&#45;&gt;[root] provider[&quot;registry.terraform.io/hashicorp/aws&quot;] (close) -->
<g id="edge29" class="edge">
<title>[root] root&#45;&gt;[root] provider[&quot;registry.terraform.io/hashicorp/aws&quot;] (close)</title>
<path fill="none" stroke="black" d="M930.69,-1079.61C974.69,-1047.64 1068.5,-979.48 1118.6,-943.09"/>
<polygon fill="black" stroke="black" points="1120.46,-946.06 1126.49,-937.35 1116.34,-940.4 1120.46,-946.06"/>
</g>
<!-- [root] root&#45;&gt;[root] provider[&quot;registry.terraform.io/hashicorp/aws&quot;].target (close) -->
<g id="edge30" class="edge">
<title>[root] root&#45;&gt;[root] provider[&quot;registry.terraform.io/hashicorp/aws&quot;].target (close)</title>
<path fill="none" stroke="black" d="M885.35,-1079.61C846.18,-1047.77 762.86,-980.05 717.94,-943.54"/>
<polygon fill="black" stroke="black" points="720.38,-941.01 710.41,-937.42 715.96,-946.44 720.38,-941.01"/>
</g>
</g>
</svg>
